<svg xmlns="http://www.w3.org/2000/svg" viewBox="0 0 64 64"><g fill="#F0B90B"><path d="M17.5872 32L17.6103 40.4615L24.8 44.6923V49.6461L13.4026 42.9615V29.5256L17.5872 32ZM17.5872 23.5385V28.4692L13.4 25.9923V21.0615L17.5872 18.5846L21.7949 21.0615L17.5872 23.5385ZM27.8026 21.0615L31.9898 18.5846L36.1975 21.0615L31.9898 23.5385L27.8026 21.0615Z"/><path d="M20.6128 38.7077V33.7538L24.8 36.2308V41.1615L20.6128 38.7077ZM27.8025 46.4667L31.9897 48.9436L36.1974 46.4667V51.3974L31.9897 53.8744L27.8025 51.3974V46.4667ZM42.2025 21.0615L46.3897 18.5846L50.5974 21.0615V25.9923L46.3897 28.4692V23.5385L42.2025 21.0615ZM46.3897 40.4615L46.4128 32L50.6 29.5231V42.959L39.2025 49.6436V44.6897L46.3897 40.4615Z"/><path d="M43.3871 38.7077L39.2 41.1615V36.2308L43.3871 33.7538V38.7077Z"/><path d="M43.3872 25.2923L43.4102 30.2462L36.2 34.4769V42.959L32.0128 45.4128L27.8256 42.959V34.4769L20.6154 30.2462V25.2923L24.8205 22.8154L31.9872 27.0667L39.1974 22.8154L43.4051 25.2923H43.3872ZM20.6128 16.8333L31.9897 10.1256L43.3872 16.8333L39.2 19.3103L31.9897 15.059L24.8 19.3103L20.6128 16.8333Z"/></g></svg>
